<svg xmlns="http://www.w3.org/2000/svg" viewBox="0 0 100 100">
  <defs>
    <linearGradient id="sweaterGradient" x1="0%" y1="0%" x2="0%" y2="100%">
      <stop offset="0%" style="stop-color:#EA580C;stop-opacity:1" />
      <stop offset="100%" style="stop-color:#C2410C;stop-opacity:1" />
    </linearGradient>
  </defs>

  <!-- Main sweater body -->
  <path fill="url(#sweaterGradient)" d="M20,35 L15,25 L10,30 L10,55 L15,55 L15,40 L20,40 Z"/>
  <path fill="url(#sweaterGradient)" d="M80,35 L85,25 L90,30 L90,55 L85,55 L85,40 L80,40 Z"/>
  <rect x="20" y="35" width="60" height="50" rx="5" fill="url(#sweaterGradient)"/>

  <!-- Neck/collar -->
  <ellipse cx="50" cy="30" rx="12" ry="8" fill="url(#sweaterGradient)"/>
  <rect x="38" y="25" width="24" height="10" fill="url(#sweaterGradient)"/>

  <!-- Ribbing details -->
  <line x1="20" y1="82" x2="80" y2="82" stroke="#FFF" stroke-width="1.5" opacity="0.4"/>
  <line x1="20" y1="78" x2="80" y2="78" stroke="#FFF" stroke-width="1" opacity="0.3"/>

  <!-- Sleeves ribbing -->
  <line x1="15" y1="52" x2="15" y2="55" stroke="#FFF" stroke-width="1.5" opacity="0.4"/>
  <line x1="85" y1="52" x2="85" y2="55" stroke="#FFF" stroke-width="1.5" opacity="0.4"/>

  <!-- Center seam -->
  <line x1="50" y1="35" x2="50" y2="85" stroke="#FFF" stroke-width="0.5" opacity="0.2"/>

  <!-- Decorative pattern on chest -->
  <circle cx="40" cy="50" r="2" fill="#FFF" opacity="0.5"/>
  <circle cx="60" cy="50" r="2" fill="#FFF" opacity="0.5"/>
  <path d="M35,58 Q50,65 65,58" stroke="#FFF" stroke-width="1.5" fill="none" opacity="0.4"/>
</svg>
